<svg width="45" height="45" viewBox="0 0 45 45" fill="none" xmlns="http://www.w3.org/2000/svg">
<path d="M22.5003 6C23.959 6 25.358 6.57946 26.3894 7.61091C27.4209 8.64236 28.0003 10.0413 28.0003 11.5V18.8333C29.459 18.8333 30.858 19.4128 31.8894 20.4442C32.9209 21.4757 33.5003 22.8746 33.5003 24.3333V29.8333C33.5003 30.0764 33.5969 30.3096 33.7688 30.4815C33.9407 30.6534 34.1739 30.75 34.417 30.75C34.6601 30.75 34.8933 30.6534 35.0652 30.4815C35.2371 30.3096 35.3337 30.0764 35.3337 29.8333V17.7608L33.5003 15.9275L32.9632 16.4628C32.6174 16.7968 32.1543 16.9816 31.6736 16.9774C31.1929 16.9732 30.7331 16.7804 30.3932 16.4405C30.0532 16.1006 29.8604 15.6408 29.8563 15.1601C29.8521 14.6794 30.0369 14.2163 30.3708 13.8705L30.9062 13.3333L30.3708 12.7962C30.0552 12.4805 29.8655 12.0605 29.8375 11.6149C29.8095 11.1694 29.945 10.7289 30.2187 10.3762L30.3708 10.2038C30.7146 9.86014 31.1809 9.66706 31.667 9.66706C32.1531 9.66706 32.6194 9.86014 32.9632 10.2038L38.4632 15.7038C38.807 16.0476 39.0002 16.5138 39.0003 17V29.8333C39.0003 31.0489 38.5174 32.2147 37.6579 33.0742C36.7984 33.9338 35.6326 34.4167 34.417 34.4167C33.2014 34.4167 32.0356 33.9338 31.1761 33.0742C30.3165 32.2147 29.8337 31.0489 29.8337 29.8333V24.3333C29.8337 23.8471 29.6405 23.3808 29.2967 23.037C28.9529 22.6932 28.4866 22.5 28.0003 22.5V35.3333C28.4866 35.3333 28.9529 35.5265 29.2967 35.8703C29.6405 36.2141 29.8337 36.6804 29.8337 37.1667C29.8337 37.6529 29.6405 38.1192 29.2967 38.463C28.9529 38.8068 28.4866 39 28.0003 39H6.00033C5.5141 39 5.04778 38.8068 4.70396 38.463C4.36015 38.1192 4.16699 37.6529 4.16699 37.1667C4.16699 36.6804 4.36015 36.2141 4.70396 35.8703C5.04778 35.5265 5.5141 35.3333 6.00033 35.3333V11.5C6.00033 10.0413 6.57979 8.64236 7.61124 7.61091C8.64269 6.57946 10.0416 6 11.5003 6H22.5003ZM17.9427 20.0122C17.5259 19.7626 17.0271 19.6886 16.5558 19.8065C16.0845 19.9244 15.6793 20.2246 15.4292 20.641L12.6792 25.2243L12.5802 25.4077C12.4531 25.687 12.3982 25.9938 12.4205 26.2999C12.4428 26.606 12.5416 26.9016 12.7078 27.1596C12.874 27.4176 13.1024 27.6297 13.3719 27.7766C13.6414 27.9234 13.9434 28.0002 14.2503 28H16.5108L15.4292 29.8077C15.2002 30.2233 15.1414 30.7116 15.265 31.1697C15.3886 31.6279 15.6851 32.0203 16.0921 32.2644C16.499 32.5084 16.9848 32.5852 17.4472 32.4785C17.9096 32.3719 18.3126 32.09 18.5715 31.6923L21.3215 27.109L21.4205 26.9257C21.5476 26.6463 21.6024 26.3395 21.5801 26.0334C21.5578 25.7273 21.459 25.4317 21.2928 25.1737C21.1266 24.9157 20.8983 24.7036 20.6288 24.5568C20.3593 24.4099 20.0572 24.3331 19.7503 24.3333H17.4862L18.5715 22.5257C18.8211 22.1089 18.895 21.6101 18.7771 21.1388C18.6592 20.6675 18.3591 20.2623 17.9427 20.0122ZM22.5003 9.66667H11.5003C11.0141 9.66667 10.5478 9.85982 10.204 10.2036C9.86015 10.5475 9.66699 11.0138 9.66699 11.5V13.3333H24.3337V11.5C24.3337 11.0138 24.1405 10.5475 23.7967 10.2036C23.4529 9.85982 22.9866 9.66667 22.5003 9.66667Z" fill="#004080"/>
</svg>
