<svg width="90" height="81" viewBox="0 0 90 81" fill="none" xmlns="http://www.w3.org/2000/svg">
<path d="M15 0.5C9.48438 0.5 5 4.98438 5 10.5V70.5C2.23437 70.5 0 72.7344 0 75.5C0 78.2656 2.23437 80.5 5 80.5H50C52.7656 80.5 55 78.2656 55 75.5C55 72.7344 52.7656 70.5 50 70.5V48H52.5C55.9531 48 58.75 50.7969 58.75 54.25V59.25C58.75 65.4687 63.7813 70.5 70 70.5C76.2187 70.5 81.25 65.4687 81.25 59.25V39.9219C86.3281 38.3281 90 33.5937 90 28V23C90 21.625 88.875 20.5 87.5 20.5H85V13C85 11.625 83.875 10.5 82.5 10.5C81.125 10.5 80 11.625 80 13V20.5H75V13C75 11.625 73.875 10.5 72.5 10.5C71.125 10.5 70 11.625 70 13V20.5H67.5C66.125 20.5 65 21.625 65 23V28C65 33.5937 68.6719 38.3281 73.75 39.9219V59.25C73.75 61.3281 72.0781 63 70 63C67.9219 63 66.25 61.3281 66.25 59.25V54.25C66.25 46.6563 60.0937 40.5 52.5 40.5H50V10.5C50 4.98438 45.5156 0.5 40 0.5H15ZM33.8906 13.4219C34.8281 14.0469 35.2187 15.2187 34.875 16.2812L30.9687 27.9844H40C41.0469 27.9844 41.9844 28.6406 42.3438 29.6094C42.7031 30.5781 42.4219 31.6875 41.625 32.375L24.125 47.375C23.2656 48.1094 22.0313 48.1719 21.1094 47.5469C20.1875 46.9219 19.7813 45.75 20.125 44.6875L24.0313 32.9844L15 33C13.9531 33 13.0156 32.3438 12.6562 31.375C12.2969 30.4063 12.5781 29.2969 13.375 28.6094L30.875 13.6094C31.7344 12.875 32.9687 12.8125 33.8906 13.4375V13.4219Z" fill="#2E8B57"/>
</svg>
