<svg width="81" height="81" viewBox="0 0 81 81" fill="none" xmlns="http://www.w3.org/2000/svg">
<path d="M35.5001 20.5C37.6158 20.4997 39.6525 21.3041 41.1969 22.7501C42.7414 24.1962 43.678 26.1755 43.8168 28.2867L43.8334 28.8333V44.1833L58.6834 46.2033C61.8206 46.5624 64.7286 48.0233 66.8895 50.3258C69.0504 52.6283 70.3239 55.623 70.4834 58.7767L70.5001 59.45V60.5C70.5028 64.4543 69.6261 68.3597 67.9334 71.9333C67.5533 72.7321 66.8714 73.3471 66.0378 73.6431C65.2042 73.9391 64.2872 73.8918 63.4884 73.5117C62.6897 73.1315 62.0747 72.4497 61.7787 71.6161C61.4827 70.7825 61.53 69.8654 61.9101 69.0667C63.0319 66.6988 63.6774 64.1335 63.8101 61.5167L63.8334 60.5V59.45C63.8336 57.901 63.2944 56.4002 62.3084 55.2056C61.3223 54.0109 59.9511 53.1969 58.4301 52.9033L57.8201 52.8133L43.0501 50.8033C41.5194 50.6225 40.0987 49.9169 39.0297 48.8065C37.9607 47.6962 37.3094 46.2498 37.1868 44.7133L37.1668 44.1833V28.8333C37.1675 28.4168 37.0123 28.0152 36.7317 27.7074C36.4511 27.3996 36.0655 27.208 35.6507 27.1704C35.2359 27.1328 34.8221 27.2518 34.4907 27.5041C34.1593 27.7563 33.9343 28.1235 33.8601 28.5333L33.8334 28.8333V57.1667C33.8329 57.8568 33.6182 58.5297 33.2189 59.0926C32.8197 59.6554 32.2556 60.0805 31.6044 60.3092C30.9533 60.5378 30.2473 60.5587 29.5837 60.369C28.9202 60.1793 28.332 59.7883 27.9001 59.25L26.7934 57.8933L25.7834 56.7133C23.8534 54.5233 22.4468 53.3133 21.2501 52.7033C20.5424 52.3221 19.7363 52.163 18.9368 52.2467L18.4668 52.3133L26.8134 69.01C27.1909 69.7701 27.2642 70.6455 27.0185 71.4577C26.7728 72.27 26.2266 72.958 25.4911 73.3814C24.7557 73.8048 23.8864 73.9318 23.0606 73.7364C22.2348 73.541 21.5145 73.0381 21.0468 72.33L20.8534 71.99L11.5968 53.48C10.3968 51.08 11.2868 47.87 14.0868 46.72C17.5634 45.2967 20.8668 45.0333 24.2701 46.76C25.0101 47.1378 25.7368 47.5978 26.4501 48.14L27.1668 48.7067V28.8333C27.1668 26.6232 28.0447 24.5036 29.6075 22.9408C31.1704 21.378 33.29 20.5 35.5001 20.5ZM35.5001 7.16667C38.85 7.16605 42.1545 7.94221 45.1538 9.43416C48.1531 10.9261 50.7657 13.0932 52.7862 15.7652C54.8066 18.4373 56.18 21.5414 56.7984 24.8337C57.4168 28.1261 57.2633 31.517 56.3501 34.74C56.2394 35.1705 56.0438 35.5744 55.7747 35.9282C55.5056 36.2819 55.1685 36.5782 54.7832 36.7998C54.3979 37.0213 53.9722 37.1636 53.5311 37.2181C53.0901 37.2727 52.6425 37.2386 52.2148 37.1176C51.7871 36.9967 51.388 36.7915 51.0408 36.514C50.6936 36.2365 50.4054 35.8924 50.1931 35.5019C49.9808 35.1115 49.8488 34.6825 49.8048 34.2402C49.7608 33.7979 49.8057 33.3513 49.9368 32.9267C50.6017 30.5767 50.6827 28.0999 50.1728 25.7114C49.6629 23.323 48.5776 21.0952 47.0111 19.2216C45.4445 17.3479 43.4442 15.8851 41.1839 14.9602C38.9235 14.0354 36.4715 13.6764 34.0409 13.9145C31.6103 14.1526 29.2746 14.9806 27.2367 16.3265C25.1988 17.6725 23.5204 19.4957 22.3472 21.6377C21.1741 23.7797 20.5417 26.1758 20.505 28.6178C20.4684 31.0597 21.0285 33.4737 22.1368 35.65C22.539 36.4377 22.6119 37.3529 22.3393 38.1943C22.0668 39.0357 21.4711 39.7344 20.6834 40.1367C19.8957 40.5389 18.9805 40.6118 18.1391 40.3392C17.2977 40.0667 16.599 39.471 16.1968 38.6833C14.5107 35.3799 13.7008 31.6989 13.8446 27.9928C13.9885 24.2867 15.0814 20.6796 17.0185 17.5168C18.9556 14.354 21.6722 11.7415 24.9082 9.92924C28.1442 8.11701 31.7912 7.16579 35.5001 7.16667Z" fill="#2E8B57"/>
</svg>
