<svg width="45" height="45" viewBox="0 0 45 45" fill="none" xmlns="http://www.w3.org/2000/svg">
<path d="M22.317 25.2501L26.167 21.4001L30.017 25.2501L32.5837 22.6834L28.7337 18.8334L32.5837 14.9834L30.017 12.4167L26.167 16.2667L22.317 12.4167L19.7503 14.9834L23.6003 18.8334L19.7503 22.6834L22.317 25.2501ZM15.167 33.5001C14.1587 33.5001 13.2958 33.1414 12.5783 32.4239C11.8609 31.7065 11.5015 30.843 11.5003 29.8334V7.83341C11.5003 6.82508 11.8597 5.96219 12.5783 5.24475C13.297 4.5273 14.1599 4.16797 15.167 4.16675H37.167C38.1753 4.16675 39.0388 4.52608 39.7575 5.24475C40.4762 5.96341 40.8349 6.8263 40.8337 7.83341V29.8334C40.8337 30.8417 40.4749 31.7052 39.7575 32.4239C39.04 33.1426 38.1765 33.5013 37.167 33.5001H15.167ZM7.83366 40.8334C6.82533 40.8334 5.96244 40.4747 5.24499 39.7572C4.52755 39.0398 4.16821 38.1763 4.16699 37.1667V11.5001H7.83366V37.1667H33.5003V40.8334H7.83366Z" fill="black"/>
</svg>
