<svg width="25" height="25" viewBox="0 0 25 25" fill="none" xmlns="http://www.w3.org/2000/svg">
<path d="M12.396 14.0625L14.5835 11.875L16.771 14.0625L18.2293 12.6042L16.0418 10.4167L18.2293 8.22918L16.771 6.77084L14.5835 8.95834L12.396 6.77084L10.9377 8.22918L13.1252 10.4167L10.9377 12.6042L12.396 14.0625ZM8.3335 18.75C7.76058 18.75 7.2703 18.5462 6.86266 18.1386C6.45502 17.7309 6.25086 17.2403 6.25016 16.6667V4.16668C6.25016 3.59376 6.45433 3.10348 6.86266 2.69584C7.271 2.2882 7.76127 2.08404 8.3335 2.08334H20.8335C21.4064 2.08334 21.897 2.28751 22.3054 2.69584C22.7137 3.10418 22.9175 3.59445 22.9168 4.16668V16.6667C22.9168 17.2396 22.713 17.7302 22.3054 18.1386C21.8977 18.5469 21.4071 18.7507 20.8335 18.75H8.3335ZM4.16683 22.9167C3.59391 22.9167 3.10364 22.7129 2.696 22.3052C2.28836 21.8976 2.08419 21.407 2.0835 20.8333V6.25001H4.16683V20.8333H18.7502V22.9167H4.16683Z" fill="#E60039"/>
</svg>
