<svg width="41" height="39" viewBox="0 0 41 39" fill="none" xmlns="http://www.w3.org/2000/svg">
<path d="M40.5132 32.2978C40.5132 32.6956 40.3551 33.0771 40.0738 33.3584C39.7925 33.6397 39.411 33.7978 39.0132 33.7978H28.8132C28.4791 35.0435 27.7434 36.1442 26.72 36.9293C25.6967 37.7143 24.443 38.1399 23.1532 38.1399C21.8634 38.1399 20.6097 37.7143 19.5863 36.9293C18.563 36.1442 17.8273 35.0435 17.4932 33.7978H2.01318C1.61536 33.7978 1.23383 33.6397 0.952523 33.3584C0.671219 33.0771 0.513184 32.6956 0.513184 32.2978C0.513184 31.8999 0.671219 31.5184 0.952523 31.2371C1.23383 30.9558 1.61536 30.7978 2.01318 30.7978H17.4932C17.8273 29.552 18.563 28.4513 19.5863 27.6662C20.6097 26.8812 21.8634 26.4556 23.1532 26.4556C24.443 26.4556 25.6967 26.8812 26.72 27.6662C27.7434 28.4513 28.4791 29.552 28.8132 30.7978H39.0132C39.411 30.7978 39.7925 30.9558 40.0738 31.2371C40.3551 31.5184 40.5132 31.8999 40.5132 32.2978ZM40.5132 5.87775C40.5132 6.27558 40.3551 6.65711 40.0738 6.93841C39.7925 7.21972 39.411 7.37775 39.0132 7.37775H34.1132C33.7791 8.6235 33.0434 9.72424 32.02 10.5093C30.9967 11.2943 29.743 11.7199 28.4532 11.7199C27.1634 11.7199 25.9097 11.2943 24.8863 10.5093C23.863 9.72424 23.1273 8.6235 22.7932 7.37775H2.01318C1.8162 7.37775 1.62115 7.33895 1.43916 7.26357C1.25717 7.18819 1.09181 7.0777 0.952523 6.93841C0.813235 6.79912 0.702746 6.63376 0.627364 6.45178C0.551982 6.26979 0.513184 6.07473 0.513184 5.87775C0.513184 5.68077 0.551982 5.48571 0.627364 5.30373C0.702746 5.12174 0.813235 4.95638 0.952523 4.81709C1.09181 4.6778 1.25717 4.56731 1.43916 4.49193C1.62115 4.41655 1.8162 4.37775 2.01318 4.37775H22.7932C23.1273 3.132 23.863 2.03126 24.8863 1.24621C25.9097 0.461158 27.1634 0.0356445 28.4532 0.0356445C29.743 0.0356445 30.9967 0.461158 32.02 1.24621C33.0434 2.03126 33.7791 3.132 34.1132 4.37775H39.0132C39.2109 4.37506 39.4072 4.41202 39.5904 4.48645C39.7736 4.56088 39.94 4.67127 40.0798 4.8111C40.2197 4.95092 40.3301 5.11735 40.4045 5.30056C40.4789 5.48376 40.5159 5.68002 40.5132 5.87775ZM40.5132 19.0778C40.5159 19.2755 40.4789 19.4717 40.4045 19.6549C40.3301 19.8381 40.2197 20.0046 40.0798 20.1444C39.94 20.2842 39.7736 20.3946 39.5904 20.4691C39.4072 20.5435 39.2109 20.5804 39.0132 20.5778H15.6132C15.2791 21.8235 14.5434 22.9242 13.52 23.7093C12.4967 24.4943 11.243 24.9199 9.95318 24.9199C8.66341 24.9199 7.40967 24.4943 6.38634 23.7093C5.36301 22.9242 4.62727 21.8235 4.29318 20.5778H2.01318C1.61536 20.5778 1.23383 20.4197 0.952523 20.1384C0.671219 19.8571 0.513184 19.4756 0.513184 19.0778C0.513184 18.6799 0.671219 18.2984 0.952523 18.0171C1.23383 17.7358 1.61536 17.5778 2.01318 17.5778H4.29318C4.62727 16.332 5.36301 15.2313 6.38634 14.4462C7.40967 13.6612 8.66341 13.2356 9.95318 13.2356C11.243 13.2356 12.4967 13.6612 13.52 14.4462C14.5434 15.2313 15.2791 16.332 15.6132 17.5778H39.0132C39.411 17.5778 39.7925 17.7358 40.0738 18.0171C40.3551 18.2984 40.5132 18.6799 40.5132 19.0778Z" fill="#303030"/>
</svg>
