<svg width="45" height="45" viewBox="0 0 45 45" fill="none" xmlns="http://www.w3.org/2000/svg">
<path fill-rule="evenodd" clip-rule="evenodd" d="M7.83366 7.83325C6.8612 7.83325 5.92857 8.21956 5.24093 8.90719C4.5533 9.59483 4.16699 10.5275 4.16699 11.4999V33.4999C4.16699 34.4724 4.5533 35.405 5.24093 36.0926C5.92857 36.7803 6.8612 37.1666 7.83366 37.1666H37.167C38.1395 37.1666 39.0721 36.7803 39.7597 36.0926C40.4473 35.405 40.8337 34.4724 40.8337 33.4999V11.4999C40.8337 10.5275 40.4473 9.59483 39.7597 8.90719C39.0721 8.21956 38.1395 7.83325 37.167 7.83325H7.83366ZM26.167 16.9999C26.167 16.5137 26.3601 16.0474 26.704 15.7036C27.0478 15.3597 27.5141 15.1666 28.0003 15.1666H33.5003C33.9866 15.1666 34.4529 15.3597 34.7967 15.7036C35.1405 16.0474 35.3337 16.5137 35.3337 16.9999C35.3337 17.4861 35.1405 17.9525 34.7967 18.2963C34.4529 18.6401 33.9866 18.8333 33.5003 18.8333H28.0003C27.5141 18.8333 27.0478 18.6401 26.704 18.2963C26.3601 17.9525 26.167 17.4861 26.167 16.9999ZM26.167 22.4999C26.167 22.0137 26.3601 21.5474 26.704 21.2036C27.0478 20.8597 27.5141 20.6666 28.0003 20.6666H33.5003C33.9866 20.6666 34.4529 20.8597 34.7967 21.2036C35.1405 21.5474 35.3337 22.0137 35.3337 22.4999C35.3337 22.9861 35.1405 23.4525 34.7967 23.7963C34.4529 24.1401 33.9866 24.3333 33.5003 24.3333H28.0003C27.5141 24.3333 27.0478 24.1401 26.704 23.7963C26.3601 23.4525 26.167 22.9861 26.167 22.4999ZM26.167 27.9999C26.167 27.5137 26.3601 27.0474 26.704 26.7036C27.0478 26.3597 27.5141 26.1666 28.0003 26.1666H33.5003C33.9866 26.1666 34.4529 26.3597 34.7967 26.7036C35.1405 27.0474 35.3337 27.5137 35.3337 27.9999C35.3337 28.4861 35.1405 28.9525 34.7967 29.2963C34.4529 29.6401 33.9866 29.8333 33.5003 29.8333H28.0003C27.5141 29.8333 27.0478 29.6401 26.704 29.2963C26.3601 28.9525 26.167 28.4861 26.167 27.9999ZM11.5003 18.8333C11.5003 17.3746 12.0798 15.9756 13.1112 14.9442C14.1427 13.9127 15.5416 13.3333 17.0003 13.3333C18.459 13.3333 19.858 13.9127 20.8894 14.9442C21.9209 15.9756 22.5003 17.3746 22.5003 18.8333C22.5003 20.2919 21.9209 21.6909 20.8894 22.7223C19.858 23.7538 18.459 24.3333 17.0003 24.3333C15.5416 24.3333 14.1427 23.7538 13.1112 22.7223C12.0798 21.6909 11.5003 20.2919 11.5003 18.8333ZM15.0607 26.1666C13.9061 26.1662 12.7807 26.5291 11.8439 27.204C10.9071 27.8789 10.2064 28.8315 9.84116 29.9268L9.76049 30.1706L9.75316 30.1926C9.67616 30.4236 9.65233 30.4988 9.67616 30.5501C9.68716 30.5739 9.71283 30.5923 9.74583 30.6216C9.80449 30.6674 9.89249 30.7389 10.0135 30.9058C10.1834 31.1413 10.4067 31.333 10.6652 31.4653C10.9237 31.5976 11.21 31.6666 11.5003 31.6666H22.5003C22.7907 31.6666 23.0769 31.5976 23.3354 31.4653C23.5939 31.333 23.8173 31.1413 23.9872 30.9058C24.0614 30.7979 24.1516 30.7021 24.2548 30.6216C24.2897 30.5923 24.3117 30.5739 24.3245 30.5483C24.3502 30.4988 24.3245 30.4236 24.2475 30.1926L24.2402 30.1706L24.1595 29.9268C23.7944 28.8318 23.094 27.8794 22.1575 27.2045C21.2211 26.5297 20.0961 26.1666 18.9418 26.1666H15.0607Z" fill="#004080"/>
</svg>
