<svg width="45" height="45" viewBox="0 0 45 45" fill="none" xmlns="http://www.w3.org/2000/svg">
<path d="M17 0.5C13.8833 0.5 11.5 2.88333 11.5 6C11.5 9.11667 13.8833 11.5 17 11.5C19.3833 11.5 21.4 10.0333 22.1333 7.83333H26.1667V11.5H29.8333V7.83333H33.5V4.16667H22.1333C21.4 1.96667 19.3833 0.5 17 0.5ZM17 4.16667C18.1 4.16667 18.8333 4.9 18.8333 6C18.8333 7.1 18.1 7.83333 17 7.83333C15.9 7.83333 15.1667 7.1 15.1667 6C15.1667 4.9 15.9 4.16667 17 4.16667ZM12.4167 15.1667C11.1333 15.1667 10.2167 15.9 9.85 17L6 28V42.6667C6 43.7667 6.73333 44.5 7.83333 44.5H9.66667C10.7667 44.5 11.5 43.7667 11.5 42.6667V40.8333H33.5V42.6667C33.5 43.7667 34.2333 44.5 35.3333 44.5H37.1667C38.2667 44.5 39 43.7667 39 42.6667V28L35.15 17C34.7833 15.9 33.6833 15.1667 32.5833 15.1667H12.4167ZM12.4167 17.9167H32.5833L35.3333 26.1667H9.66667L12.4167 17.9167ZM12.4167 29.8333C13.8833 29.8333 15.1667 31.1167 15.1667 32.5833C15.1667 34.05 13.8833 35.3333 12.4167 35.3333C10.95 35.3333 9.66667 34.05 9.66667 32.5833C9.66667 31.1167 10.95 29.8333 12.4167 29.8333ZM32.5833 29.8333C34.05 29.8333 35.3333 31.1167 35.3333 32.5833C35.3333 34.05 34.05 35.3333 32.5833 35.3333C31.1167 35.3333 29.8333 34.05 29.8333 32.5833C29.8333 31.1167 31.1167 29.8333 32.5833 29.8333Z" fill="#004080"/>
</svg>
