<svg width="45" height="45" viewBox="0 0 45 45" fill="none" xmlns="http://www.w3.org/2000/svg">
<path d="M11.5 27.9999V28.9166C11.5 29.6805 11.2329 30.3301 10.6988 30.8654C10.1647 31.4008 9.51511 31.6678 8.75 31.6666C7.98489 31.6654 7.33589 31.3983 6.803 30.8654C6.27011 30.3325 6.00244 29.6829 6 28.9166V15.8083C6 15.5944 6.01528 15.3805 6.04583 15.1666C6.07639 14.9527 6.12222 14.7541 6.18333 14.5708L9.62083 4.80825C9.86528 4.07492 10.3083 3.47909 10.95 3.02075C11.5917 2.56242 12.3097 2.33325 13.1042 2.33325H31.8958C32.6903 2.33325 33.4083 2.56242 34.05 3.02075C34.6917 3.47909 35.1347 4.07492 35.3792 4.80825L38.8167 14.5708C38.8778 14.7541 38.9236 14.9527 38.9542 15.1666C38.9847 15.3805 39 15.5944 39 15.8083V28.9166C39 29.6805 38.7329 30.3301 38.1988 30.8654C37.6647 31.4008 37.0151 31.6678 36.25 31.6666C35.4849 31.6654 34.8359 31.3983 34.303 30.8654C33.7701 30.3325 33.5024 29.6829 33.5 28.9166V27.9999H11.5ZM11.1333 11.4999H33.8667L31.9417 5.99992H13.0583L11.1333 11.4999ZM14.25 22.4999C15.0139 22.4999 15.6635 22.2329 16.1988 21.6988C16.7342 21.1646 17.0012 20.515 17 19.7499C16.9988 18.9848 16.7317 18.3358 16.1988 17.8029C15.6659 17.27 15.0163 17.0024 14.25 16.9999C13.4837 16.9975 12.8347 17.2651 12.303 17.8029C11.7713 18.3407 11.5037 18.9897 11.5 19.7499C11.4963 20.5101 11.764 21.1598 12.303 21.6988C12.842 22.2378 13.491 22.5048 14.25 22.4999ZM30.75 22.4999C31.5139 22.4999 32.1635 22.2329 32.6988 21.6988C33.2342 21.1646 33.5012 20.515 33.5 19.7499C33.4988 18.9848 33.2317 18.3358 32.6988 17.8029C32.1659 17.27 31.5163 17.0024 30.75 16.9999C29.9837 16.9975 29.3347 17.2651 28.803 17.8029C28.2713 18.3407 28.0037 18.9897 28 19.7499C27.9963 20.5101 28.264 21.1598 28.803 21.6988C29.342 22.2378 29.991 22.5048 30.75 22.4999ZM24.3333 38.9999V41.1999C24.3333 41.536 24.1879 41.7958 23.897 41.9791C23.6061 42.1624 23.3085 42.1777 23.0042 42.0249L15.075 38.0374C14.8611 37.9152 14.7768 37.7392 14.822 37.5094C14.8672 37.2796 15.0127 37.1654 15.2583 37.1666H20.6667V34.9666C20.6667 34.6305 20.8121 34.3708 21.103 34.1874C21.3939 34.0041 21.6915 33.9888 21.9958 34.1416L29.925 38.1291C30.1389 38.2513 30.2232 38.4273 30.178 38.6571C30.1328 38.8869 29.9873 39.0011 29.7417 38.9999H24.3333Z" fill="#004080"/>
</svg>
