<svg width="45" height="45" viewBox="0 0 45 45" fill="none" xmlns="http://www.w3.org/2000/svg">
<path d="M19.75 11.5V14.25H11.5V11.5H19.75ZM11.5 19.75V17H19.75V19.75H11.5ZM11.5 25.25V22.5H17V25.25H11.5ZM8.75 11.5V14.25H6V11.5H8.75ZM8.75 17V19.75H6V17H8.75ZM6 25.25V22.5H8.75V25.25H6ZM3.25 3.25V41.75H17V44.5H0.5V0.5H24.4551L36.25 12.2949V17H33.5V14.25H22.5V3.25H3.25ZM25.25 5.20508V11.5H31.5449L25.25 5.20508ZM39 22.5H44.5V44.5H19.75V22.5H25.25V19.75H28V22.5H36.25V19.75H39V22.5ZM41.75 41.75V30.75H22.5V41.75H41.75ZM41.75 28V25.25H22.5V28H41.75Z" fill="#004080"/>
</svg>
