<svg width="66" height="76" viewBox="0 0 66 76" fill="none" xmlns="http://www.w3.org/2000/svg">
<path d="M10.925 5.5C11.4422 4.03711 12.4004 2.77064 13.6675 1.87514C14.9347 0.979638 16.4484 0.499187 18 0.5H33C34.5516 0.499187 36.0653 0.979638 37.3325 1.87514C38.5996 2.77064 39.5578 4.03711 40.075 5.5H43C44.9891 5.5 46.8968 6.29018 48.3033 7.6967C49.7098 9.10322 50.5 11.0109 50.5 13V26.535C48.8655 26.0729 47.1917 25.7633 45.5 25.61V13C45.5 12.337 45.2366 11.7011 44.7678 11.2322C44.2989 10.7634 43.663 10.5 43 10.5H40.075C39.5578 11.9629 38.5996 13.2294 37.3325 14.1249C36.0653 15.0204 34.5516 15.5008 33 15.5H18C16.4484 15.5008 14.9347 15.0204 13.6675 14.1249C12.4004 13.2294 11.4422 11.9629 10.925 10.5H8C7.33696 10.5 6.70107 10.7634 6.23223 11.2322C5.76339 11.7011 5.5 12.337 5.5 13V63C5.5 63.663 5.76339 64.2989 6.23223 64.7678C6.70107 65.2366 7.33696 65.5 8 65.5H18.5C19.42 67.2933 20.515 68.96 21.785 70.5H8C6.01088 70.5 4.10322 69.7098 2.6967 68.3033C1.29018 66.8968 0.5 64.9891 0.5 63V13C0.5 11.0109 1.29018 9.10322 2.6967 7.6967C4.10322 6.29018 6.01088 5.5 8 5.5H10.925ZM18 5.5C17.337 5.5 16.7011 5.76339 16.2322 6.23223C15.7634 6.70107 15.5 7.33696 15.5 8C15.5 8.66304 15.7634 9.29893 16.2322 9.76777C16.7011 10.2366 17.337 10.5 18 10.5H33C33.663 10.5 34.2989 10.2366 34.7678 9.76777C35.2366 9.29893 35.5 8.66304 35.5 8C35.5 7.33696 35.2366 6.70107 34.7678 6.23223C34.2989 5.76339 33.663 5.5 33 5.5H18ZM65.5 53C65.5 58.9674 63.1295 64.6903 58.9099 68.9099C54.6903 73.1295 48.9674 75.5 43 75.5C37.0326 75.5 31.3097 73.1295 27.0901 68.9099C22.8705 64.6903 20.5 58.9674 20.5 53C20.5 47.0326 22.8705 41.3097 27.0901 37.0901C31.3097 32.8705 37.0326 30.5 43 30.5C48.9674 30.5 54.6903 32.8705 58.9099 37.0901C63.1295 41.3097 65.5 47.0326 65.5 53ZM54.77 43.73C54.5378 43.4972 54.2619 43.3125 53.9582 43.1864C53.6544 43.0604 53.3288 42.9955 53 42.9955C52.6712 42.9955 52.3456 43.0604 52.0418 43.1864C51.7381 43.3125 51.4622 43.4972 51.23 43.73L38 56.965L34.77 53.73C34.3006 53.2606 33.6639 52.9968 33 52.9968C32.3361 52.9968 31.6994 53.2606 31.23 53.73C30.7606 54.1994 30.4968 54.8361 30.4968 55.5C30.4968 56.1639 30.7606 56.8006 31.23 57.27L36.23 62.27C36.4622 62.5028 36.7381 62.6875 37.0418 62.8136C37.3456 62.9396 37.6712 63.0045 38 63.0045C38.3288 63.0045 38.6544 62.9396 38.9582 62.8136C39.2619 62.6875 39.5378 62.5028 39.77 62.27L54.77 47.27C55.0028 47.0378 55.1875 46.7619 55.3136 46.4582C55.4396 46.1544 55.5045 45.8288 55.5045 45.5C55.5045 45.1712 55.4396 44.8456 55.3136 44.5418C55.1875 44.2381 55.0028 43.9622 54.77 43.73Z" fill="#2E8B57"/>
</svg>
