<svg width="45" height="45" viewBox="0 0 45 45" fill="none" xmlns="http://www.w3.org/2000/svg">
<path d="M35.9167 25.2498H28.8125C27.8708 25.2489 26.9671 25.6214 26.2997 26.2857C25.6323 26.9501 25.2556 27.852 25.2522 28.7937V35.8978C25.2517 36.3655 25.3434 36.8287 25.5222 37.2609C25.7009 37.6931 25.9632 38.0857 26.2939 38.4165C26.6246 38.7472 27.0173 39.0094 27.4494 39.1881C27.8816 39.3669 28.3448 39.4587 28.8125 39.4582H35.9167C36.858 39.4543 37.7595 39.0774 38.4234 38.41C39.0874 37.7426 39.4596 36.8392 39.4587 35.8978V28.7937C39.4591 28.3284 39.3679 27.8676 39.19 27.4376C39.0122 27.0077 38.7513 26.617 38.4223 26.288C38.0933 25.959 37.7027 25.6981 37.2727 25.5203C36.8427 25.3425 36.3819 25.2512 35.9167 25.2517M16.1882 25.2498H9.08399C8.14275 25.2552 7.24187 25.6328 6.57819 26.3003C5.91451 26.9677 5.54198 27.8707 5.54199 28.812V35.9162C5.54151 36.3815 5.6328 36.8423 5.81063 37.2722C5.98846 37.7022 6.24934 38.0928 6.57835 38.4218C6.90735 38.7508 7.29801 39.0117 7.72796 39.1895C8.15791 39.3674 8.61872 39.4587 9.08399 39.4582H16.1882C17.1295 39.4592 18.0329 39.0869 18.7003 38.4229C19.3677 37.759 19.7446 36.8576 19.7485 35.9162V28.812C19.749 28.3443 19.6572 27.8811 19.4785 27.449C19.2997 27.0168 19.0375 26.6241 18.7068 26.2934C18.3761 25.9627 17.9834 25.7005 17.5512 25.5217C17.119 25.343 16.6558 25.2512 16.1882 25.2517M16.1882 5.54151H9.08399C8.61872 5.54102 8.15791 5.63231 7.72796 5.81014C7.29801 5.98797 6.90735 6.24886 6.57835 6.57786C6.24934 6.90686 5.98846 7.29752 5.81063 7.72747C5.6328 8.15742 5.54151 8.61823 5.54199 9.08351V16.1877C5.54102 17.1291 5.91329 18.0324 6.57723 18.6998C7.24117 19.3672 8.14262 19.7441 9.08399 19.748H16.1882C16.6558 19.7485 17.119 19.6567 17.5512 19.478C17.9834 19.2992 18.3761 19.037 18.7068 18.7063C19.0375 18.3756 19.2997 17.9829 19.4785 17.5507C19.6572 17.1185 19.749 16.6554 19.7485 16.1877V9.08351C19.7446 8.14213 19.3677 7.24068 18.7003 6.57674C18.0329 5.9128 17.1295 5.54053 16.1882 5.54151ZM35.9167 5.54151H28.8125C27.8711 5.54053 26.9677 5.9128 26.3004 6.57674C25.633 7.24068 25.256 8.14213 25.2522 9.08351V16.1877C25.2526 17.1318 25.6279 18.0371 26.2955 18.7047C26.9631 19.3723 27.8684 19.7475 28.8125 19.748H35.9167C36.858 19.7441 37.7595 19.3672 38.4234 18.6998C39.0874 18.0324 39.4596 17.1291 39.4587 16.1877V9.08351C39.4591 8.61823 39.3679 8.15742 39.19 7.72747C39.0122 7.29752 38.7513 6.90686 38.4223 6.57786C38.0933 6.24886 37.7027 5.98797 37.2727 5.81014C36.8427 5.63231 36.3819 5.54102 35.9167 5.54151Z" stroke="#004080" stroke-width="3" stroke-linecap="round" stroke-linejoin="round"/>
</svg>
