<svg width="48" height="48" viewBox="0 0 48 48" fill="none" xmlns="http://www.w3.org/2000/svg">
<path d="M1.01743 23.7128C1.01632 27.7458 2.07008 31.6836 4.07381 35.1545L0.825806 47.0135L12.962 43.8313C16.3187 45.6587 20.0797 46.6162 23.9015 46.6165H23.9116C36.5283 46.6165 46.7986 36.3499 46.804 23.7309C46.8065 17.6161 44.4273 11.8661 40.1047 7.54018C35.7828 3.2146 30.0349 0.83116 23.9106 0.828369C11.2924 0.828369 1.02283 11.0944 1.01762 23.7128" fill="url(#paint0_linear_137_45)"/>
<path d="M0.200168 23.7053C0.198866 27.8833 1.2904 31.962 3.36556 35.5572L0.00109863 47.8413L12.5724 44.5451C16.0363 46.4337 19.9362 47.4294 23.9045 47.4309H23.9148C36.9842 47.4309 47.6234 36.795 47.629 23.7243C47.6312 17.3898 45.1665 11.4331 40.6895 6.95219C36.2119 2.47181 30.2584 0.00260465 23.9148 0C10.8431 0 0.205378 10.6344 0.200168 23.7053ZM7.68687 34.938L7.21747 34.1929C5.24426 31.0554 4.20277 27.4298 4.20426 23.7068C4.20835 12.8426 13.05 4.00372 23.9222 4.00372C29.1873 4.00595 34.1354 6.05842 37.8571 9.78233C41.5786 13.5066 43.6264 18.4573 43.6251 23.7228C43.6203 34.587 34.7784 43.427 23.9148 43.427H23.907C20.3697 43.4251 16.9004 42.4752 13.875 40.68L13.155 40.253L5.69487 42.2089L7.68687 34.938Z" fill="url(#paint1_linear_137_45)"/>
<path d="M17.9877 13.7949C17.5438 12.8083 17.0766 12.7884 16.6544 12.7711C16.3088 12.7562 15.9136 12.7573 15.5188 12.7573C15.1237 12.7573 14.4816 12.906 13.9389 13.4986C13.3957 14.0917 11.8649 15.525 11.8649 18.4401C11.8649 21.3553 13.9882 24.1728 14.2842 24.5685C14.5806 24.9635 18.3834 31.1372 24.4061 33.5123C29.4115 35.4861 30.4301 35.0935 31.5164 34.9946C32.6029 34.8959 35.0223 33.5616 35.5158 32.178C36.0098 30.7946 36.0098 29.6087 35.8617 29.3609C35.7136 29.114 35.3184 28.9657 34.7259 28.6695C34.1333 28.3733 31.22 26.9397 30.677 26.7419C30.1337 26.5443 29.7387 26.4457 29.3436 27.039C28.9484 27.6314 27.8137 28.9657 27.4678 29.3609C27.1224 29.757 26.7765 29.8063 26.1841 29.5099C25.5912 29.2126 23.6829 28.5877 21.4189 26.5692C19.6574 24.9986 18.4682 23.0591 18.1225 22.4658C17.7769 21.8734 18.0855 21.5523 18.3826 21.2571C18.6489 20.9916 18.9754 20.5652 19.2719 20.2193C19.5674 19.8733 19.666 19.6264 19.8636 19.2312C20.0613 18.8357 19.9624 18.4896 19.8144 18.1933C19.666 17.8969 18.5145 14.9665 17.9877 13.7949Z" fill="white"/>
<defs>
<linearGradient id="paint0_linear_137_45" x1="2299.74" y1="4619.34" x2="2299.74" y2="0.828369" gradientUnits="userSpaceOnUse">
<stop stop-color="#1FAF38"/>
<stop offset="1" stop-color="#60D669"/>
</linearGradient>
<linearGradient id="paint1_linear_137_45" x1="2381.4" y1="4784.13" x2="2381.4" y2="0" gradientUnits="userSpaceOnUse">
<stop stop-color="#F9F9F9"/>
<stop offset="1" stop-color="white"/>
</linearGradient>
</defs>
</svg>
